<svg width="160" height="48" viewBox="0 0 160 48" fill="none" xmlns="http://www.w3.org/2000/svg">
<g clip-path="url(#clip0)">
<path d="M34.5068 34.4849C33.1735 34.5921 31.8401 34.0558 30.8801 33.0905L24.2668 26.4938C23.4668 25.6893 22.1335 25.6893 21.3335 26.4938L14.7735 33.0905C13.8135 34.0558 12.4801 34.5921 11.1468 34.4849C9.97348 34.3776 8.85348 33.8949 8.00015 33.0368L1.38682 26.3329C-0.47985 24.4558 -0.47985 21.4525 1.38682 19.5754L19.5735 1.34074C21.3868 -0.482721 24.2668 -0.482721 26.0802 1.34074L31.0401 6.32845C31.2001 6.00666 31.4135 5.68488 31.6801 5.41672C32.7468 4.45136 34.4002 4.55862 35.3601 5.63124C35.7868 6.11393 36.0001 6.7575 36.0001 7.40108V11.3162L44.2135 19.5754C46.0801 21.4525 46.0801 24.4558 44.2135 26.3329L42.6135 27.9419L40.5868 25.9039L42.1868 24.2949C42.9335 23.5441 42.9335 22.3642 42.1868 21.6134L24.2668 3.59326C23.4668 2.78879 22.1335 2.78879 21.3335 3.59326L3.41348 21.6134C2.66682 22.3642 2.66682 23.5441 3.41348 24.2949L10.1335 30.9988C10.8801 31.7497 12.0535 31.7497 12.8001 30.9988L19.5735 24.1877C21.3868 22.3642 24.2668 22.3642 26.0802 24.1877L32.8535 30.9988C33.2268 31.3743 33.7602 31.5888 34.2935 31.5352C34.7735 31.4815 35.2001 31.267 35.5735 30.9452L37.1201 29.3899L39.1468 31.4279L37.6535 32.9296C36.8001 33.8413 35.6801 34.3776 34.5068 34.4849Z" fill="#E03C31"/>
<path d="M34.5068 45.9087C33.1735 46.016 31.8401 45.4797 30.8801 44.5143L24.2668 37.9176C23.4668 37.1132 22.1335 37.1132 21.3335 37.9176L14.7735 44.5143C13.8135 45.4797 12.4801 46.016 11.1468 45.9087C9.97348 45.8014 8.85348 45.3188 8.00015 44.4607L1.38682 37.8104C-0.47985 35.9333 -0.47985 32.9299 1.38682 31.0528L2.98682 29.4439L5.01348 31.4819L3.41348 33.0908C2.66682 33.8417 2.66682 35.0216 3.41348 35.7724L10.0801 42.4227C10.4001 42.7445 10.8801 42.959 11.3601 43.0126C11.8935 43.0662 12.4268 42.8517 12.8001 42.4763L19.5735 35.6651C21.3868 33.8417 24.2668 33.8417 26.0802 35.6651L32.8535 42.4763C33.2268 42.8517 33.7602 43.0662 34.2935 43.0126C34.7735 42.959 35.2001 42.7445 35.5735 42.4227L42.2401 35.7724C42.9868 35.0216 42.9868 33.8417 42.2401 33.0908L24.3201 15.0171C23.5201 14.2126 22.1868 14.2126 21.3868 15.0171L8.53348 27.9422L6.50682 25.9042L19.5735 12.7646C21.3868 10.9411 24.2668 10.9411 26.0802 12.7646L44.2135 30.9992C46.0801 32.8763 46.0801 35.8797 44.2135 37.7567L37.6001 44.4607C36.8001 45.3188 35.6801 45.8014 34.5068 45.9087Z" fill="#E03C31"/>
<path d="M51.6801 31.3746C51.5201 31.2138 51.4668 30.9456 51.4668 30.6774V15.607C51.4668 15.3389 51.5201 15.1244 51.6801 14.9098C51.8935 14.7489 52.1068 14.6953 52.3735 14.6953H56.9601C58.8268 14.6953 60.2135 15.0707 61.1201 15.8216C62.0268 16.5724 62.5601 17.7523 62.5068 18.9322C62.5068 19.7367 62.2401 20.5411 61.7601 21.1847C61.2801 21.8283 60.6401 22.3646 59.8935 22.6327V22.74C60.4268 22.8473 60.9068 23.0618 61.3335 23.3836C61.8668 23.759 62.2935 24.2417 62.6135 24.778C62.9868 25.3679 63.1468 26.0115 63.1468 26.7087C63.2535 28.1031 62.6668 29.4439 61.6001 30.3557C60.5868 31.1601 59.0401 31.5892 57.0668 31.5892H52.3201C52.1068 31.5892 51.8935 31.5355 51.6801 31.3746ZM56.6935 21.6137C57.3868 21.6674 58.0268 21.4529 58.5601 20.9702C59.0401 20.5948 59.2535 20.0048 59.2535 19.4149C59.2535 18.0205 58.4001 17.3232 56.6935 17.3232H54.6135V21.5601H56.6935V21.6137ZM57.3868 28.9076C58.0801 28.9612 58.7735 28.7467 59.3068 28.264C59.7868 27.7814 60.0001 27.1914 60.0001 26.4942C60.0001 25.8506 59.7335 25.2607 59.2535 24.8853C58.6135 24.4562 57.8135 24.2953 57.0668 24.3489H54.7201V28.9076H57.3868Z" fill="#E03C31"/>
<path d="M64.7468 30.7844C64.1068 30.0872 63.7334 29.1755 63.7868 28.2101C63.7868 25.2604 66.1868 23.7587 71.0401 23.7587V22.847C71.0401 21.7743 70.3468 21.238 68.9068 21.238C68.3734 21.238 67.8401 21.2917 67.3601 21.4526C66.9334 21.5598 66.5601 21.7207 66.1868 21.8816C66.0268 21.9889 65.8134 22.0425 65.6001 22.0961C65.3868 22.0961 65.1734 21.8816 64.9068 21.3989C64.6934 21.0771 64.5334 20.7554 64.4801 20.3799C64.4801 20.1118 64.6934 19.8436 65.1201 19.6291C65.6534 19.3609 66.1868 19.1464 66.7734 19.0392C67.5201 18.8783 68.2668 18.771 69.0668 18.771C70.7734 18.771 72.0001 19.1464 72.8535 19.8436C73.7068 20.5408 74.1334 21.6135 74.0801 22.7397V27.5665C74.0801 28.371 74.1334 29.1755 74.2401 29.9799C74.2934 30.3017 74.3468 30.6235 74.4001 30.8917C74.4001 31.1062 74.1334 31.2671 73.6001 31.428C73.1201 31.5352 72.6401 31.5889 72.1601 31.5889C71.9468 31.5889 71.7335 31.428 71.6268 31.2135C71.5201 30.9453 71.4135 30.7308 71.3601 30.4626C71.3068 30.1945 71.2535 30.0336 71.2535 29.9263C70.8801 30.409 70.4001 30.838 69.8134 31.1062C69.1201 31.5352 68.3201 31.6961 67.5201 31.6961C66.5601 31.857 65.5468 31.4816 64.7468 30.7844ZM69.9201 28.8537C70.4001 28.5319 70.7734 28.1565 71.0935 27.7274V25.904C70.0268 25.8503 69.0134 26.0112 68.0001 26.333C67.3068 26.5475 66.8268 27.1911 66.8801 27.9419C66.8801 28.3174 66.9868 28.6928 67.2534 28.9609C67.5734 29.2291 67.9468 29.3364 68.3734 29.3364C68.9068 29.3364 69.4401 29.1755 69.9201 28.8537Z" fill="#E03C31"/>
<path d="M77.1735 30.8917C76.5335 30.3017 76.2668 29.39 76.2668 28.1029V21.3989H75.6268C75.4135 21.3989 75.2535 21.3453 75.1468 21.1308C75.0401 20.8626 74.9868 20.5945 74.9868 20.3263V19.9509C74.9868 19.6827 75.0401 19.4146 75.1468 19.1464C75.2535 18.9855 75.4668 18.8783 75.6268 18.8783H76.2668L76.5868 16.5185C76.6401 16.0358 77.0135 15.8213 77.7068 15.8213H78.2935C78.9868 15.8213 79.3068 16.0358 79.3068 16.5185V18.8783H80.8001C81.0135 18.8783 81.1735 18.9319 81.2801 19.1464C81.3868 19.4146 81.4401 19.6827 81.4401 19.9509V20.3799C81.4401 20.6481 81.3868 20.9163 81.2801 21.1844C81.1735 21.3453 80.9601 21.4526 80.8001 21.4526H79.3601V28.0492C79.3068 28.4246 79.4135 28.7464 79.6268 29.0682C79.8401 29.2827 80.1068 29.39 80.3735 29.3364C80.5335 29.3364 80.6935 29.3364 80.8535 29.2827C80.9602 29.2291 81.0668 29.2291 81.1735 29.2291C81.3868 29.2291 81.4935 29.4436 81.6535 29.8191C81.7601 30.0872 81.8135 30.409 81.8668 30.7308C81.8668 31.428 81.1735 31.7498 79.7868 31.7498C78.7201 31.8034 77.8135 31.4816 77.1735 30.8917Z" fill="#E03C31"/>
<path d="M83.9469 30.9988C83.2002 30.4088 82.6669 29.658 82.3469 28.7463C81.9202 27.62 81.7603 26.4401 81.7603 25.2602C81.7603 23.2222 82.1869 21.6669 83.0936 20.5407C84.6936 18.6099 87.5202 18.2345 89.5469 19.7362V14.1049C89.5469 13.6759 89.9736 13.4077 90.8269 13.4077H91.3069C92.1602 13.4077 92.5869 13.6222 92.5869 14.1049V27.5664C92.5869 28.3708 92.6402 29.1753 92.7469 29.9798C92.8002 30.3016 92.8536 30.6234 92.9069 30.8915C92.9069 31.106 92.6402 31.2669 92.1069 31.4278C91.6269 31.5351 91.2003 31.5887 90.7203 31.5887C90.5069 31.5887 90.2936 31.4278 90.1869 31.2133C90.0803 30.9451 89.9736 30.7306 89.9203 30.4625C89.8669 30.1943 89.8136 30.0334 89.8136 29.9262C89.0136 31.0524 87.7336 31.7496 86.4003 31.7496C85.4936 31.8032 84.6402 31.5351 83.9469 30.9988ZM89.5469 27.7809V21.9351C88.9069 21.506 88.1602 21.2379 87.4136 21.2379C85.7069 21.2379 84.8003 22.5787 84.8003 25.2066C84.7469 26.2256 84.9603 27.2982 85.3869 28.2099C85.7069 28.8535 86.4003 29.2826 87.0936 29.2289C88.0003 29.2289 88.8536 28.7463 89.5469 27.7809Z" fill="#E03C31"/>
<path d="M95.1469 30.0872C94.1869 28.9609 93.7069 27.352 93.6535 25.2604C93.6002 23.1688 94.1335 21.5598 95.1469 20.4336C96.1069 19.3073 97.5469 18.771 99.4135 18.771C101.28 18.771 102.667 19.3073 103.627 20.4336C104.587 21.5598 105.067 23.1688 105.067 25.2604C105.067 27.352 104.587 28.9609 103.627 30.0872C102.667 31.2135 101.227 31.7498 99.4135 31.7498C97.6002 31.7498 96.1069 31.2135 95.1469 30.0872ZM101.387 28.3174C101.867 27.352 102.08 26.333 102.027 25.2604C102.08 24.1878 101.867 23.1688 101.387 22.257C100.587 21.1308 99.0402 20.9162 97.9202 21.7743C97.7069 21.9352 97.5469 22.0961 97.4402 22.257C96.9602 23.1688 96.6935 24.2414 96.8002 25.2604C96.7469 26.333 96.9602 27.352 97.4402 28.3174C98.2402 29.4436 99.7869 29.6581 100.907 28.8C101.067 28.6928 101.227 28.5319 101.387 28.3174Z" fill="#E03C31"/>
<path d="M106.187 30.9454V23.0079C106.187 22.2035 106.133 21.399 106.027 20.6482C105.973 20.3264 105.92 20.0582 105.867 19.7364C105.867 19.5219 106.133 19.361 106.667 19.2001C107.147 19.0929 107.627 19.0392 108.053 19.0392C108.32 19.0392 108.533 19.1465 108.64 19.4147C108.747 19.6292 108.853 19.8973 108.907 20.1119C108.96 20.38 109.013 20.5409 109.013 20.5945C109.44 20.0582 109.973 19.6292 110.613 19.3074C111.253 18.9856 111.947 18.8247 112.64 18.8247C115.093 18.8247 116.267 20.1119 116.267 22.7398V30.999C116.267 31.2135 116.16 31.4281 115.947 31.5353C115.627 31.6426 115.307 31.7498 114.987 31.6962H114.507C113.653 31.6962 113.227 31.4817 113.227 30.999V23.1152C113.227 21.9353 112.64 21.3454 111.413 21.3454C110.933 21.3454 110.507 21.5063 110.133 21.7744C109.707 22.0426 109.387 22.418 109.12 22.8471V30.9454C109.12 31.4281 108.693 31.6426 107.84 31.6426H107.36C106.613 31.6426 106.187 31.4281 106.187 30.9454Z" fill="#E03C31"/>
<path d="M130.987 31.5892C130.454 31.4819 129.974 31.2674 129.494 30.9992C129.121 30.7311 128.907 30.4629 128.907 30.1948C128.961 29.8194 129.067 29.4439 129.334 29.1758C129.601 28.7467 129.867 28.5858 130.081 28.5858C130.294 28.6395 130.454 28.6931 130.614 28.8004C130.934 28.9613 131.201 29.0685 131.521 29.2294C131.894 29.3367 132.267 29.3903 132.641 29.3903C133.814 29.3903 134.347 28.9613 134.347 28.0495C134.347 27.6205 134.134 27.2451 133.814 27.0305C133.281 26.7087 132.747 26.4406 132.161 26.2797C131.361 26.0115 130.614 25.5825 129.974 24.9925C129.441 24.349 129.174 23.5445 129.227 22.6864C129.174 21.6138 129.601 20.6484 130.401 19.9512C131.254 19.2004 132.374 18.8249 133.494 18.8786C134.294 18.8786 135.094 18.9858 135.841 19.254C136.587 19.4685 136.961 19.7903 136.961 20.1657C136.961 20.5411 136.801 20.9166 136.641 21.2384C136.427 21.6674 136.214 21.8819 136.001 21.8819C135.787 21.8283 135.574 21.721 135.361 21.6138C134.881 21.3992 134.401 21.3456 133.921 21.3456C133.494 21.3456 133.121 21.3992 132.747 21.6138C132.481 21.7747 132.321 22.0965 132.321 22.4182C132.321 22.74 132.427 23.0618 132.641 23.2763C132.854 23.4909 133.067 23.7054 133.334 23.8127C133.601 23.9199 134.081 24.1344 134.721 24.4026C135.521 24.6708 136.214 25.1534 136.747 25.7434C137.227 26.387 137.441 27.1914 137.387 27.9423C137.441 29.0149 136.961 30.0875 136.161 30.8384C135.254 31.5892 134.081 31.9646 132.854 31.911C132.214 31.8037 131.627 31.6965 130.987 31.5892Z" fill="#E03C31"/>
<path d="M139.147 30.7844C138.507 30.0872 138.134 29.1755 138.187 28.2101C138.187 25.2604 140.587 23.7587 145.441 23.7587V22.847C145.441 21.7743 144.747 21.238 143.307 21.238C142.774 21.238 142.24 21.2917 141.76 21.4526C141.334 21.5598 140.961 21.7207 140.587 21.8816C140.427 21.9889 140.214 22.0425 140 22.0961C139.787 22.0961 139.574 21.8816 139.307 21.3989C139.094 21.0771 138.934 20.7554 138.88 20.3799C138.88 20.1118 139.094 19.8436 139.467 19.6291C140 19.3609 140.534 19.1464 141.121 19.0392C141.867 18.8783 142.614 18.771 143.414 18.771C145.12 18.771 146.347 19.1464 147.2 19.8436C148.054 20.5408 148.48 21.6135 148.427 22.7397V27.5665C148.427 28.371 148.481 29.1755 148.587 29.9799C148.641 30.3017 148.694 30.6235 148.747 30.8917C148.747 31.1062 148.48 31.2671 147.947 31.428C147.467 31.5352 146.987 31.5889 146.507 31.5889C146.294 31.5889 146.081 31.428 145.974 31.2135C145.867 30.9453 145.761 30.7308 145.707 30.4626C145.654 30.1945 145.6 30.0336 145.6 29.9263C145.174 30.409 144.694 30.838 144.16 31.1598C143.467 31.5889 142.667 31.7498 141.867 31.7498C140.907 31.857 139.894 31.4816 139.147 30.7844ZM144.267 28.8537C144.747 28.5319 145.121 28.1565 145.441 27.7274V25.904C144.374 25.8503 143.36 26.0112 142.347 26.333C141.654 26.5475 141.174 27.1911 141.227 27.9419C141.227 28.3174 141.334 28.6928 141.6 28.9609C141.92 29.2291 142.294 29.3364 142.721 29.3364C143.254 29.3364 143.787 29.1755 144.267 28.8537Z" fill="#E03C31"/>
<path d="M149.867 30.9454V23.0079C149.867 22.2035 149.814 21.399 149.707 20.6482C149.654 20.3264 149.6 20.0582 149.547 19.7364C149.547 19.5219 149.814 19.361 150.347 19.2001C150.827 19.0929 151.307 19.0392 151.787 19.0392C152.054 19.0392 152.267 19.1465 152.374 19.4147C152.48 19.6292 152.587 19.8973 152.64 20.1119C152.694 20.38 152.747 20.5409 152.747 20.5945C153.174 20.0582 153.707 19.6292 154.347 19.3074C154.987 18.9856 155.68 18.8247 156.374 18.8247C158.827 18.8247 160 20.1119 160 22.7398V30.999C160 31.2135 159.894 31.4281 159.68 31.5353C159.36 31.6426 159.04 31.7498 158.72 31.6962H158.24C157.387 31.6962 156.96 31.4817 156.96 30.999V23.1152C156.96 21.9353 156.374 21.3454 155.147 21.3454C154.667 21.3454 154.24 21.5063 153.814 21.7744C153.44 22.0426 153.067 22.418 152.8 22.8471V30.9454C152.8 31.4281 152.374 31.6426 151.52 31.6426H151.04C150.294 31.6426 149.867 31.4281 149.867 30.9454Z" fill="#E03C31"/>
<path d="M128.161 19.468V29.5507C128.161 32.0714 127.681 33.8412 126.721 34.9675C125.761 36.0937 124.267 36.6301 122.187 36.6301C121.281 36.6301 120.374 36.5228 119.521 36.201C118.774 35.8792 118.347 35.5574 118.24 35.1284C118.134 34.8066 118.134 34.4312 118.134 34.1094C118.134 33.5731 118.241 33.2513 118.454 33.2513C118.507 33.2513 118.614 33.3049 118.667 33.3049L118.88 33.4122C119.627 33.8949 120.427 34.1094 121.28 34.1094C122.56 34.1094 123.521 33.8412 124.161 33.2513C124.747 32.6613 125.067 31.7496 125.067 30.4625C124.214 31.2133 123.094 31.6423 121.921 31.6423C120.534 31.696 119.254 31.0524 118.454 29.9261C117.601 28.7463 117.174 27.1909 117.174 25.2066C117.174 24.0267 117.334 22.8468 117.76 21.7206C118.08 20.8088 118.667 20.058 119.414 19.468C120.107 18.9317 120.96 18.6636 121.814 18.6636C123.147 18.6636 124.427 19.3071 125.174 20.4334C125.227 20.1116 125.281 19.7898 125.387 19.468C125.441 19.2535 125.601 19.0926 125.761 18.9317C126.027 18.7708 126.294 18.7172 126.614 18.7708H126.827C127.734 18.9317 128.161 19.0926 128.161 19.468ZM125.174 22.7932C124.481 21.7742 123.681 21.2915 122.774 21.2915C122.027 21.2915 121.334 21.6669 121.014 22.3105C120.587 23.2222 120.374 24.2949 120.427 25.3139C120.374 26.3328 120.587 27.3518 121.121 28.2636C121.547 28.9072 122.294 29.2826 123.094 29.2826C123.841 29.2826 124.587 29.068 125.227 28.5854L125.174 22.7932Z" fill="#E03C31"/>
<path d="M116.374 15.4459V14.266C116.374 13.9978 116.64 13.8369 117.12 13.8369H117.494C118.027 13.8369 118.24 13.9442 118.24 14.266V15.4459C118.24 15.714 117.974 15.8749 117.494 15.8749H117.12C116.64 15.8213 116.374 15.714 116.374 15.4459Z" fill="#63666A"/>
<path d="M119.733 14.9633C119.147 14.3197 118.827 13.3544 118.827 12.0136C118.827 10.6728 119.147 9.70746 119.787 9.06388C120.533 8.36668 121.493 8.04489 122.453 8.09852C122.987 8.09852 123.52 8.15215 124.053 8.31304C124.533 8.47394 124.8 8.68846 124.8 8.95662C124.747 9.17115 124.693 9.38567 124.533 9.54656C124.373 9.81472 124.213 9.92198 124.107 9.92198L123.893 9.81472C123.467 9.6002 122.987 9.49293 122.507 9.49293C121.973 9.4393 121.493 9.65383 121.173 10.0829C120.853 10.6192 120.693 11.2628 120.747 11.9063C120.693 12.5499 120.853 13.1935 121.173 13.7834C121.493 14.2125 122.027 14.427 122.56 14.3734C122.827 14.3734 123.093 14.3734 123.36 14.2661C123.573 14.2125 123.84 14.1052 124.053 13.998C124.107 13.9443 124.213 13.9443 124.267 13.9443C124.373 13.9443 124.533 14.0516 124.693 14.3197C124.8 14.4806 124.907 14.6952 124.907 14.9097C124.907 15.1242 124.747 15.2851 124.48 15.3924C124.16 15.5533 123.84 15.6605 123.467 15.7142C123.147 15.7678 122.773 15.8214 122.453 15.8214C121.44 15.9823 120.48 15.6605 119.733 14.9633Z" fill="#63666A"/>
<path d="M126.134 14.9097C125.494 14.1052 125.174 13.0862 125.28 12.0136C125.227 10.9946 125.547 9.92198 126.134 9.11751C126.774 8.42031 127.734 8.04489 128.694 8.09852C129.654 8.04489 130.56 8.36668 131.254 9.06388C131.894 9.86835 132.214 10.941 132.107 11.96C132.16 12.979 131.894 13.998 131.254 14.8561C129.814 16.2505 127.574 16.2505 126.134 14.9097ZM129.867 13.8371C130.187 13.3008 130.294 12.6572 130.24 12.0136C130.294 11.37 130.134 10.7801 129.867 10.1901C129.6 9.81472 129.174 9.54656 128.694 9.6002C128.214 9.54656 127.787 9.81472 127.52 10.1901C127.2 10.7265 127.094 11.37 127.147 12.0136C127.094 12.6572 127.254 13.3008 127.52 13.8371C127.787 14.2661 128.214 14.4806 128.694 14.427C129.174 14.4806 129.6 14.2661 129.867 13.8371Z" fill="#63666A"/>
<path d="M143.413 10.458V15.3921C143.413 15.6602 143.147 15.8211 142.667 15.8211H142.4C141.867 15.8211 141.653 15.6602 141.653 15.3921V10.7261C141.76 10.2435 141.387 9.76077 140.907 9.65351C140.8 9.65351 140.747 9.65351 140.64 9.65351C140.373 9.65351 140.053 9.76077 139.84 9.92166C139.627 10.0826 139.467 10.2971 139.307 10.5116V15.3921C139.307 15.6602 139.04 15.8211 138.56 15.8211H138.293C138.08 15.8211 137.92 15.8211 137.707 15.7138C137.6 15.6602 137.493 15.4993 137.547 15.3921V10.7261C137.653 10.2435 137.28 9.76077 136.8 9.65351C136.693 9.65351 136.64 9.65351 136.533 9.65351C136.213 9.65351 135.893 9.76077 135.68 9.97529C135.467 10.1362 135.307 10.3507 135.2 10.5652V15.4457C135.2 15.7138 134.933 15.8747 134.453 15.8747H134.187C133.653 15.8747 133.44 15.7138 133.44 15.4457V10.7261C133.44 10.2435 133.44 9.76077 133.333 9.33172C133.28 9.17082 133.28 8.9563 133.227 8.79541C133.227 8.68814 133.387 8.58088 133.707 8.47362C133.973 8.41999 134.293 8.36636 134.56 8.36636C134.72 8.36636 134.827 8.41999 134.88 8.58088C134.933 8.74177 134.987 8.84904 135.04 9.00993C135.093 9.11719 135.093 9.22446 135.093 9.33172C135.36 9.00993 135.68 8.74177 136.053 8.58088C136.427 8.36636 136.853 8.25909 137.28 8.25909C138.293 8.25909 138.933 8.63451 139.2 9.38535C139.467 9.06356 139.787 8.79541 140.213 8.58088C140.587 8.36636 141.013 8.25909 141.493 8.25909C142.72 8.15183 143.413 8.90267 143.413 10.458Z" fill="#63666A"/>
<path d="M144.32 15.4459V14.266C144.32 13.9978 144.587 13.8369 145.067 13.8369H145.44C145.974 13.8369 146.187 13.9442 146.187 14.266V15.4459C146.187 15.714 145.92 15.8749 145.44 15.8749H145.067C144.534 15.8213 144.32 15.714 144.32 15.4459Z" fill="#63666A"/>
<path d="M148.64 15.5531L146.347 8.74188C146.293 8.68825 146.293 8.58099 146.293 8.47372C146.293 8.2592 146.56 8.20557 147.093 8.20557H147.413C147.84 8.20557 148.107 8.31283 148.16 8.47372L149.227 11.8525C149.28 12.0134 149.387 12.4424 149.547 13.1396L149.653 13.6223H149.707C149.813 12.9251 149.973 12.3352 150.133 11.8525L151.2 8.47372C151.253 8.31283 151.467 8.20557 151.947 8.20557H152.213C152.693 8.20557 152.96 8.31283 152.96 8.47372C152.96 8.58099 152.96 8.63462 152.907 8.74188L150.56 15.5531C150.507 15.7139 150.24 15.8212 149.813 15.8212H149.333C148.96 15.8212 148.693 15.7676 148.64 15.5531Z" fill="#63666A"/>
<path d="M153.547 15.4461V10.6729C153.547 10.1903 153.547 9.70757 153.44 9.27852C153.387 9.11763 153.387 8.9031 153.333 8.74221C153.333 8.63495 153.493 8.52768 153.813 8.42042C154.08 8.36679 154.4 8.31316 154.667 8.31316C154.827 8.31316 154.933 8.36679 154.987 8.52768C155.04 8.68858 155.093 8.79584 155.147 8.95673L155.2 9.22489C155.467 8.9031 155.787 8.63495 156.16 8.42042C156.533 8.2059 156.96 8.09863 157.387 8.09863C158.827 8.09863 159.574 8.9031 159.574 10.4584V15.3925C159.574 15.4998 159.52 15.6606 159.413 15.7143C159.253 15.7679 159.04 15.8215 158.827 15.8215H158.56C158.027 15.8215 157.813 15.6606 157.813 15.3925V10.7266C157.867 10.1903 157.493 9.70757 157.013 9.65394C156.907 9.65394 156.853 9.65394 156.747 9.65394C156.48 9.65394 156.213 9.7612 155.947 9.9221C155.733 10.083 155.52 10.2975 155.36 10.5657V15.4461C155.36 15.7143 155.093 15.8752 154.613 15.8752H154.347C153.76 15.8215 153.547 15.7143 153.547 15.4461Z" fill="#63666A"/>
</g>
<defs>
<clipPath id="clip0">
<rect width="160" height="48" fill="white"/>
</clipPath>
</defs>
</svg>
